# xmcd
#
# Track frame offsets:
#	150
#	13372
#	27952
#	46541
#	64373
#	76653
#	99143
#	115226
#	125683
#	139664
#
# Disc length: 2036 seconds
# Revision: 1
# Processed by: cddbd v1.5.2PL0 Copyright (c) Steve Scherf et al.
# Submitted via: dBpowerAMP V12.0
#
DISCID=7a07f20a
DTITLE=Renée Martel - 5 Albums Incontournables CD2 Un coin du ciel
DYEAR=2014
DGENRE=Country
TTITLE0=Un coin du ciel
TTITLE1=Il est là
TTITLE2=J'ai confiance en toi
TTITLE3=T'aimer
TTITLE4=De 9 à 5
TTITLE5=El Lute
TTITLE6=Personne ne le sait
TTITLE7=Tu es revenu
TTITLE8=Je voudrais danser
TTITLE9=Une femme pour la vie
EXTD=
EXTT0=
EXTT1=
EXTT2=
EXTT3=
EXTT4=
EXTT5=
EXTT6=
EXTT7=
EXTT8=
EXTT9=
PLAYORDER=
